<?xml version="1.0" encoding="UTF-8"?> <svg xmlns="http://www.w3.org/2000/svg" width="147" height="40" viewBox="0 0 147 40" fill="none"><g clip-path="url(#clip0_159_943)"><path d="M142.172 23.936L134.863 24.9745C132.213 25.3498 130.397 26.0101 129.415 26.9551C128.551 27.7835 128.119 29.0763 128.117 30.8333C128.099 31.5109 128.229 32.1843 128.496 32.8068C128.763 33.4292 129.162 33.9858 129.665 34.4379C130.701 35.3867 132.108 35.8622 133.908 35.8622C136.34 35.8622 138.328 35.0136 139.87 33.3164C141.412 31.6191 142.18 29.4987 142.172 26.9551V23.936ZM146.998 39.2649H142.172V34.5276H142.054C139.952 38.1837 136.859 40.0088 132.775 40.0028C129.718 40.0028 127.325 39.155 125.616 37.457C123.988 35.8629 123.173 33.7829 123.171 31.2169C123.171 25.5622 126.489 22.2582 133.124 21.3475L142.172 20.0735C142.172 14.9429 140.101 12.3784 135.96 12.3799C132.32 12.3799 129.039 13.6113 126.116 16.0742V11.0991C127.041 10.4262 128.47 9.79817 130.391 9.20152C132.326 8.58787 134.341 8.26143 136.371 8.23253C143.461 8.23253 147.004 12.009 146.998 19.5621V39.2649ZM119.201 38.971C118.064 39.6193 116.546 39.9423 114.665 39.9423C109.403 39.9423 106.771 36.9665 106.771 31.015V13.0707H106.807V8.96824H106.771V1.57745C108.299 1.08099 109.907 0.557615 111.597 0.00732422V8.97945V13.0909V30.1851C111.597 32.215 111.939 33.6595 112.633 34.5186C113.328 35.3777 114.462 35.8016 116.07 35.8016C117.189 35.8273 118.286 35.4872 119.196 34.8326L119.201 38.971ZM98.9557 31.1563C98.9786 32.3292 98.7425 33.4927 98.2645 34.563C97.7865 35.6334 97.0785 36.5842 96.1912 37.3471C94.1606 39.1116 91.3991 39.9969 87.9066 40.0028C85.0423 40.0028 82.5495 39.3935 80.4281 38.1748V32.9642C82.7906 34.8932 85.3944 35.8622 88.2683 35.8622C92.0891 35.8622 94.0095 34.4468 94.0095 31.6296C94.0238 31.0785 93.9179 30.5308 93.6991 30.0252C93.4804 29.5195 93.1542 29.0681 92.7434 28.7024C91.8993 27.9353 90.2491 27.0045 87.7972 25.9256C85.2619 24.8175 83.468 23.6728 82.4155 22.4915C81.1382 21.0873 80.4951 19.2705 80.4951 17.0185C80.4951 14.4928 81.4865 12.3956 83.4695 10.7268C85.4525 9.05796 88.0093 8.22655 91.14 8.23253C93.3681 8.19654 95.5742 8.68025 97.5846 9.64563V14.5332C95.5993 13.0887 93.2003 12.3314 90.7493 12.3754C89.1303 12.3754 87.8463 12.7679 86.8883 13.5552C86.4266 13.9148 86.0552 14.378 85.8039 14.9078C85.5526 15.4375 85.4284 16.0191 85.4413 16.6058C85.4413 17.9516 85.8432 18.9901 86.6471 19.746C87.3818 20.4413 88.8802 21.2802 91.1914 22.2605C93.755 23.3506 95.6151 24.4609 96.7517 25.6026C98.23 27.056 98.9557 28.9133 98.9557 31.1563ZM75.4215 31.1563C75.4439 32.3294 75.2075 33.4929 74.7291 34.5632C74.2507 35.6336 73.5423 36.5843 72.6548 37.3471C70.6257 39.1116 67.8649 39.9969 64.3724 40.0028C61.5051 40.0028 59.0115 39.3935 56.8916 38.1748V32.9642C59.2542 34.8932 61.858 35.8622 64.7341 35.8622C68.5542 35.8622 70.4671 34.4513 70.4731 31.6296C70.4874 31.0785 70.3814 30.5308 70.1627 30.0252C69.944 29.5195 69.6178 29.0681 69.207 28.7024C68.3629 27.9353 66.7149 27.0045 64.2607 25.9256C61.7299 24.813 59.9338 23.6683 58.8724 22.4915C57.595 21.0873 56.9519 19.2705 56.9519 17.0185C56.9519 14.4928 57.9441 12.3956 59.9286 10.7268C61.913 9.05796 64.4662 8.22655 67.588 8.23253C69.8161 8.19654 72.0221 8.68025 74.0326 9.64563V14.5332C72.0517 13.0917 69.6586 12.3345 67.2128 12.3754C65.5939 12.3754 64.3099 12.7679 63.3519 13.5552C62.8901 13.9148 62.5187 14.378 62.2674 14.9078C62.0161 15.4375 61.8919 16.0191 61.9048 16.6058C61.9048 17.9516 62.3068 18.9901 63.1107 19.746C63.8454 20.4413 65.3438 21.2802 67.655 22.2605C70.2185 23.3506 72.0787 24.4609 73.2153 25.6026C74.6936 27.0605 75.4312 28.9118 75.4283 31.1563H75.4215ZM47.7718 21.2174C47.7316 18.4518 47.0773 16.3097 45.8201 14.7665C44.5138 13.1694 42.6425 12.3754 40.2263 12.3754C39.1426 12.3541 38.0664 12.5604 37.0666 12.981C36.0668 13.4016 35.1655 14.0273 34.4204 14.8181C32.8215 16.4443 31.8456 18.5751 31.475 21.2197L47.7718 21.2174ZM52.718 25.3289H31.4236C31.504 28.7219 32.4054 31.3275 34.1278 33.1459C35.8562 34.9538 38.2389 35.8622 41.2557 35.8622C44.6545 35.8622 47.7681 34.7579 50.5966 32.5492V37.0734C47.9616 39.0323 44.4632 40.0088 40.1013 40.0028C35.979 40.0028 32.7113 38.7034 30.2981 36.1044C27.7063 33.3365 26.4096 29.3813 26.4081 24.2388C26.4081 19.361 27.812 15.4259 30.6197 12.4337C33.2435 9.62545 36.4725 8.23253 40.2821 8.23253C44.3642 8.23253 47.4905 9.59405 49.6409 12.3418C51.6879 14.9063 52.7136 18.3867 52.718 22.7831V25.3289ZM24.9723 10.3567L7.09666 35.1556H24.7713V39.2649H0V37.7598L17.8444 13.0865H1.67926V8.96824H24.9723V10.3567Z" fill="#2371B0"></path><path fill-rule="evenodd" clip-rule="evenodd" d="M103.406 6.89502L120.395 12.1347L103.406 18.0563V6.89502Z" fill="#92C841"></path></g><defs><clipPath id="clip0_159_943"><rect width="147" height="40" fill="white"></rect></clipPath></defs></svg> 